<?xml version="1.0" encoding="utf-8"?>
<!-- Generator: Adobe Illustrator 25.2.0, SVG Export Plug-In . SVG Version: 6.00 Build 0)  -->
<svg version="1.1" id="Layer_1" xmlns="http://www.w3.org/2000/svg" xmlns:xlink="http://www.w3.org/1999/xlink" x="0px" y="0px"
	 viewBox="0 0 256.2 254.7" style="enable-background:new 0 0 256.2 254.7;" xml:space="preserve">
<style type="text/css">
	.st0{fill-rule:evenodd;clip-rule:evenodd;fill:#FFFFFF;filter:url(#Adobe_OpacityMaskFilter);}
	.st1{mask:url(#mask0_1_);}
	.st2{fill:#0065A9;}
	.st3{fill:#007ACC;}
	.st4{fill:#1F9CF0;}
	.st5{opacity:0.25;}
	.st6{fill-rule:evenodd;clip-rule:evenodd;fill:url(#SVGID_1_);}
</style>
<defs>
	<filter id="Adobe_OpacityMaskFilter" filterUnits="userSpaceOnUse" x="0" y="0" width="256.2" height="254.7">
		<feColorMatrix  type="matrix" values="1 0 0 0 0  0 1 0 0 0  0 0 1 0 0  0 0 0 1 0"/>
	</filter>
</defs>
<mask maskUnits="userSpaceOnUse" x="0" y="0" width="256.2" height="254.7" id="mask0_1_">
	<path class="st0" d="M181.7,253.6c4,1.6,8.6,1.5,12.7-0.5l52.7-25.4c5.5-2.7,9.1-8.3,9.1-14.4v-172c0-6.1-3.5-11.8-9.1-14.4
		L194.4,1.6C189-1,182.8-0.4,178.1,3c-0.7,0.5-1.3,1-1.9,1.6L75.3,96.7L31.4,63.4c-4.1-3.1-9.8-2.9-13.6,0.6L3.6,76.8
		C-1,81-1,88.3,3.6,92.6l38.1,34.8L3.6,162.1c-4.6,4.2-4.6,11.5,0,15.8l14.1,12.8c3.8,3.5,9.5,3.7,13.6,0.6L75.3,158L176.2,250
		C177.8,251.6,179.7,252.8,181.7,253.6z M192.2,69.2l-76.6,58.1l76.6,58.1V69.2z"/>
</mask>
<g class="st1">
	<path class="st2" d="M247.1,27L194.3,1.6c-6.1-2.9-13.4-1.7-18.2,3.1L3.5,162.1c-4.6,4.2-4.6,11.5,0,15.8l14.1,12.8
		c3.8,3.5,9.5,3.7,13.6,0.6L239.2,33.6c7-5.3,17-0.3,17,8.4v-0.6C256.2,35.2,252.6,29.6,247.1,27z"/>
	<path class="st3" d="M247.1,227.7l-52.7,25.4c-6.1,2.9-13.4,1.7-18.2-3.1L3.5,92.6c-4.6-4.2-4.6-11.5,0-15.8L17.6,64
		c3.8-3.5,9.5-3.7,13.6-0.6l207.9,157.7c7,5.3,17,0.3,17-8.4v0.6C256.2,219.4,252.6,225,247.1,227.7z"/>
	<path class="st4" d="M194.4,253.1c-6.1,2.9-13.4,1.7-18.2-3.1c5.9,5.9,16,1.7,16-6.6V11.3c0-8.4-10.1-12.5-16-6.6
		c4.8-4.8,12.1-6,18.2-3.1l52.7,25.4c5.5,2.7,9.1,8.3,9.1,14.4v172c0,6.1-3.5,11.8-9.1,14.4L194.4,253.1z"/>
	<g class="st5">
		
			<linearGradient id="SVGID_1_" gradientUnits="userSpaceOnUse" x1="128.0001" y1="254.5699" x2="128.0001" y2="-0.1104" gradientTransform="matrix(1 0 0 -1 0 254.57)">
			<stop  offset="0" style="stop-color:#FFFFFF"/>
			<stop  offset="1" style="stop-color:#FFFFFF;stop-opacity:0"/>
		</linearGradient>
		<path class="st6" d="M181.5,253.6c4,1.6,8.6,1.5,12.7-0.5l52.7-25.4c5.5-2.7,9.1-8.3,9.1-14.4v-172c0-6.1-3.5-11.8-9.1-14.4
			L194.2,1.6C188.9-1,182.6-0.4,178,3c-0.7,0.5-1.3,1-1.9,1.6L75.1,96.7L31.2,63.4c-4.1-3.1-9.8-2.9-13.6,0.6L3.5,76.8
			c-4.6,4.2-4.7,11.5,0,15.8l38.1,34.8L3.5,162.1c-4.6,4.2-4.6,11.5,0,15.8l14.1,12.8c3.8,3.5,9.5,3.7,13.6,0.6L75.1,158L176,250
			C177.6,251.6,179.5,252.8,181.5,253.6z M192,69.2l-76.6,58.1l76.6,58.1V69.2z"/>
	</g>
</g>
</svg>
